<?xml version="1.0" encoding="UTF-8" standalone="no"?>
<!DOCTYPE svg PUBLIC "-//W3C//DTD SVG 1.1//EN"
 "http://www.w3.org/Graphics/SVG/1.1/DTD/svg11.dtd">
<!-- Generated by graphviz version 2.38.0 (20140413.2041)
 -->
<!-- Title: G Pages: 1 -->
<svg width="445pt" height="240pt"
 viewBox="0.00 0.00 444.58 240.00" xmlns="http://www.w3.org/2000/svg" xmlns:xlink="http://www.w3.org/1999/xlink">
<g id="graph0" class="graph" transform="scale(1 1) rotate(0) translate(4 236)">
<title>G</title>
<polygon fill="white" stroke="none" points="-4,4 -4,-236 440.579,-236 440.579,4 -4,4"/>
<g id="clust1" class="cluster"><title>cluster_Global</title>
<path fill="none" stroke="gray" d="M304.579,-8C304.579,-8 416.579,-8 416.579,-8 422.579,-8 428.579,-14 428.579,-20 428.579,-20 428.579,-212 428.579,-212 428.579,-218 422.579,-224 416.579,-224 416.579,-224 304.579,-224 304.579,-224 298.579,-224 292.579,-218 292.579,-212 292.579,-212 292.579,-20 292.579,-20 292.579,-14 298.579,-8 304.579,-8"/>
<text text-anchor="middle" x="360.579" y="-211.2" font-family="Times New Roman,serif" font-size="11.00" fill="gray">Global</text>
</g>
<g id="clust2" class="cluster"><title>cluster_\ArrayKeys</title>
<path fill="none" stroke="gray" d="M312.579,-16C312.579,-16 408.579,-16 408.579,-16 414.579,-16 420.579,-22 420.579,-28 420.579,-28 420.579,-184 420.579,-184 420.579,-190 414.579,-196 408.579,-196 408.579,-196 312.579,-196 312.579,-196 306.579,-196 300.579,-190 300.579,-184 300.579,-184 300.579,-28 300.579,-28 300.579,-22 306.579,-16 312.579,-16"/>
<text text-anchor="middle" x="360.579" y="-183.2" font-family="Times New Roman,serif" font-size="11.00" fill="gray">ArrayKeys</text>
</g>
<!-- \\ArrayKeys\\ArrayKeys -->
<g id="node1" class="node"><title>\\ArrayKeys\\ArrayKeys</title>
<polygon fill="none" stroke="black" points="399.079,-168 322.079,-168 322.079,-132 399.079,-132 399.079,-168"/>
<text text-anchor="middle" x="360.579" y="-147.2" font-family="Courier,monospace" font-size="11.00">ArrayKeys</text>
</g>
<!-- \\ArrayKeys\\DummyRESTApi -->
<g id="node2" class="node"><title>\\ArrayKeys\\DummyRESTApi</title>
<polygon fill="none" stroke="black" points="409.579,-114 311.579,-114 311.579,-78 409.579,-78 409.579,-114"/>
<text text-anchor="middle" x="360.579" y="-93.2" font-family="Courier,monospace" font-size="11.00">DummyRESTApi</text>
</g>
<!-- \\ArrayKeys\\ArrayKeysTest -->
<g id="node3" class="node"><title>\\ArrayKeys\\ArrayKeysTest</title>
<polygon fill="none" stroke="black" points="412.579,-60 308.579,-60 308.579,-24 412.579,-24 412.579,-60"/>
<text text-anchor="middle" x="360.579" y="-39.2" font-family="Courier,monospace" font-size="11.00">ArrayKeysTest</text>
</g>
<!-- \\phpunit\\framework\\TestCase -->
<g id="node4" class="node"><title>\\phpunit\\framework\\TestCase</title>
<ellipse fill="none" stroke="black" cx="118.29" cy="-42" rx="118.079" ry="18"/>
<text text-anchor="middle" x="118.29" y="-38.3" font-family="Times New Roman,serif" font-size="14.00" fill="gray">\phpunit\framework\TestCase</text>
</g>
<!-- \\ArrayKeys\\ArrayKeysTest&#45;&gt;\\phpunit\\framework\\TestCase -->
<g id="edge1" class="edge"><title>\\ArrayKeys\\ArrayKeysTest&#45;&gt;\\phpunit\\framework\\TestCase</title>
<path fill="none" stroke="black" d="M308.326,-42C290.038,-42 268.534,-42 246.709,-42"/>
<polygon fill="none" stroke="black" points="246.669,-38.5001 236.669,-42 246.669,-45.5001 246.669,-38.5001"/>
</g>
</g>
</svg>
